<?xml version="1.0" encoding="utf-8" ?>
<svg baseProfile="tiny" height="100%" shape-rendering="crispEdges" version="1.2" width="100%" xmlns="http://www.w3.org/2000/svg" xmlns:ev="http://www.w3.org/2001/xml-events" xmlns:xlink="http://www.w3.org/1999/xlink"><defs /><path d="M41.9,69.0 41.3,69.8 40.6,70.7 39.9,71.5 39.3,72.4 38.6,73.2 38.0,74.1 37.4,75.0 36.8,75.9 36.2,76.8 35.7,77.7 35.1,78.6 34.6,79.5 34.0,80.5 33.5,81.4 33.0,82.4 32.5,83.3 32.0,84.3 31.6,85.3 31.1,86.3 30.7,87.1 30.4,88.0 30.0,88.9 29.7,89.8 29.3,90.7 29.0,91.6 28.7,92.5 28.4,93.5 28.1,94.4 27.8,95.3 27.6,96.3 27.3,97.2 27.1,98.2 26.8,99.2 26.6,100.0 26.4,101.0 26.2,102.0 26.0,103.0 25.9,104.0 25.7,105.0 25.6,106.0 25.4,107.0 25.3,108.0 25.2,109.0 25.1,110.0 25.0,111.0 24.9,112.0 24.9,113.0 24.8,114.0 24.8,115.0 24.8,116.0 24.8,117.0 24.8,118.0 24.8,119.0 24.8,120.0 24.9,121.0 24.9,122.0 25.0,123.0 25.0,124.0 25.1,125.0 25.2,126.0 25.4,127.0 25.5,128.0 25.6,129.0 25.8,130.0 25.9,131.0 26.1,132.0 26.3,133.0 26.5,134.0 26.7,135.0 27.0,136.0 27.2,137.0 27.5,138.0 27.7,139.0 28.0,140.0 28.3,141.0 28.6,142.0 29.0,142.0 29.3,143.0 29.6,144.0 30.0,145.0 30.4,146.0 30.9,147.0 31.3,148.0 31.8,149.0 32.3,150.0 32.9,151.0 33.4,152.0 33.9,153.0 34.5,154.0 35.1,155.0 35.7,156.0 36.3,157.0 36.9,158.0Z" fill="none" stroke="red" stroke-width="2" /><path d="M177.0,67.5 176.0,66.6 175.0,65.8 175.0,64.9 174.0,64.0 173.0,63.2 173.0,62.4 172.0,61.5 172.0,60.7 171.0,59.9 170.0,59.1 170.0,58.3 169.0,57.5 168.0,56.7 167.0,55.9 167.0,55.2 166.0,54.4 165.0,53.7 164.0,53.0 164.0,52.3 163.0,51.6 162.0,50.9 161.0,50.2 161.0,49.6 160.0,49.0 159.0,48.3 158.0,47.8 157.0,47.3 157.0,46.8 156.0,46.4 155.0,45.9 154.0,45.4 154.0,45.0 153.0,44.5 152.0,44.1 151.0,43.7 151.0,43.3 150.0,42.9 149.0,42.5 148.0,42.1 147.0,41.8 147.0,41.4 146.0,41.1 145.0,40.7 144.0,40.4 143.0,40.1 143.0,39.8 142.0,39.5 141.0,39.2 140.0,39.0 139.0,38.7 138.0,38.5 137.0,38.2 137.0,38.0 136.0,37.8 135.0,37.6 134.0,37.4 133.0,37.2 132.0,37.0 131.0,36.8 130.0,36.7 130.0,36.5 129.0,36.4 128.0,36.2 127.0,36.1 126.0,36.0 125.0,35.9 124.0,35.8 123.0,35.7 122.0,35.7 121.0,35.6 121.0,35.5 120.0,35.5 119.0,35.5 118.0,35.4 117.0,35.4 116.0,35.4 115.0,35.4 114.0,35.4 113.0,35.4 112.0,35.5 111.0,35.5 110.0,35.6 109.0,35.6 109.0,35.7 108.0,35.8 107.0,35.9 106.0,36.0 105.0,36.1 104.0,36.2 103.0,36.3 102.0,36.4 101.0,36.6 100.0,36.7 99.2,36.9 98.3,37.0 97.4,37.2 96.5,37.4 95.6,37.6 94.6,37.8 93.7,38.0 92.8,38.2 91.9,38.5 91.0,38.7 90.0,38.9 89.1,39.2 88.2,39.5 87.3,39.7 86.4,40.0 85.5,40.3 84.6,40.6 83.7,40.9 82.8,41.2 81.9,41.5 81.0,41.9 80.1,42.2 79.3,42.5 78.4,42.9 77.5,43.3 76.6,43.6 75.8,44.0 74.9,44.4 74.0,44.8 73.2,45.2 72.3,45.6 71.5,46.0 70.6,46.5 69.8,46.9 68.9,47.3 68.1,47.8 67.3,48.2 66.4,48.7 65.6,49.2 64.8,49.7 64.0,50.2 63.2,50.6 62.4,51.2 61.6,51.7 60.8,52.2 60.0,52.7 59.2,53.2 58.5,53.8 57.7,54.3 56.9,54.9 56.2,55.5 55.4,56.0 54.7,56.6 54.0,57.2 53.2,57.8 52.5,58.4 51.8,59.0 51.1,59.6 50.4,60.2 49.7,60.9 49.0,61.5 48.3,62.2 47.6,62.8 47.0,63.5 46.3,64.1 45.7,64.8 45.0,65.5 44.4,66.2 43.8,66.9 43.2,67.6 42.5,68.3 41.9,69.0Z" fill="none" stroke="green" stroke-width="2" /><path d="M43.0,70.0 43.5,70.6 44.0,71.2 44.6,71.7 45.2,72.3 45.7,72.7 46.3,73.2 46.9,73.6 47.5,74.0 48.1,74.3 48.8,74.7 49.4,75.0 50.0,75.3 50.7,75.5 51.3,75.8 52.0,76.0 52.6,76.3 53.3,76.5 54.0,76.7 54.6,76.8 55.3,77.0 56.0,77.2 56.7,77.3 57.4,77.5 58.1,77.6 58.8,77.8 59.4,77.9 60.1,78.1 60.8,78.2 61.5,78.4 62.2,78.6 62.9,78.7 63.6,78.9 64.3,79.1 64.9,79.3 65.6,79.5 66.3,79.7 67.0,79.9 67.6,80.2 68.3,80.5 68.9,80.8 69.6,81.1 70.2,81.4 70.9,81.8 71.5,82.1 72.1,82.6 72.7,83.0 73.3,83.5 73.9,84.0 74.5,84.5 75.0,85.1 75.6,85.7 76.1,86.3 76.7,87.0 77.2,87.8 77.7,88.5 78.2,89.3 78.7,90.2 79.2,91.1 79.6,92.0 80.1,93.0 80.5,94.1 80.9,95.2 81.2,96.0 81.4,96.8 81.6,97.7 81.8,98.6 82.0,99.6 82.1,101.0 82.3,101.0 82.4,102.0 82.5,103.0 82.5,105.0 82.6,106.0 82.6,107.0 82.6,108.0 82.6,109.0 82.5,110.0 82.5,111.0 82.4,112.0 82.4,113.0 82.3,114.0 82.2,115.0 82.0,117.0 81.9,118.0 81.7,119.0 81.6,120.0 81.4,121.0 81.2,122.0 81.0,123.0 80.8,124.0 80.6,125.0 80.4,126.0 80.2,127.0 79.9,128.0 79.7,129.0 79.4,130.0 79.2,131.0 78.9,131.0 78.7,132.0 78.3,133.0 77.9,134.0 77.5,135.0 77.1,136.0 76.6,137.0 76.2,138.0 75.7,139.0 75.3,140.0 74.8,141.0 74.3,141.0 73.8,142.0 73.3,143.0 72.7,143.0 72.2,144.0 71.7,144.0 71.1,145.0 70.5,145.0 70.0,146.0 69.4,146.0 68.8,146.0 68.2,147.0 67.6,147.0 67.0,147.0 66.4,148.0 65.7,148.0 65.1,148.0 64.5,148.0 63.8,149.0 63.2,149.0 62.5,149.0 61.8,149.0 61.2,149.0 60.5,149.0 59.8,149.0 59.1,150.0 58.4,150.0 57.7,150.0 57.1,150.0 56.4,150.0 55.7,150.0 55.0,150.0 54.2,150.0 53.5,151.0 52.8,151.0 52.1,151.0 51.4,151.0 50.7,151.0 50.0,151.0 49.3,151.0 48.6,152.0 47.8,152.0 47.1,152.0 46.4,152.0 45.7,153.0 45.0,153.0 44.3,153.0 43.6,153.0 42.9,154.0 42.2,154.0 41.5,154.0 40.8,155.0 40.1,155.0 39.4,156.0 38.7,156.0 38.0,157.0 36.9,158.0 37.4,159.0 37.9,159.0 38.4,160.0 38.9,161.0 39.4,161.0 39.9,162.0 40.5,163.0 41.0,163.0 41.5,164.0 42.1,165.0 42.7,165.0 43.2,166.0 43.8,167.0 44.4,167.0 45.0,168.0 45.6,169.0 46.2,169.0 46.8,170.0 47.4,170.0 48.0,171.0 48.6,172.0 49.2,172.0 49.9,173.0 50.5,173.0 51.2,174.0 51.8,174.0 52.5,175.0 53.1,175.0 53.8,176.0 54.5,177.0 55.2,177.0 55.8,178.0 56.5,178.0 57.2,179.0 57.9,179.0 58.6,180.0 59.3,180.0 60.1,180.0 60.8,181.0 61.5,181.0 62.2,182.0 63.0,182.0 63.7,183.0 64.5,183.0 65.2,184.0 65.9,184.0 66.7,184.0 67.5,185.0 68.2,185.0 69.0,186.0 69.8,186.0 70.5,186.0 71.3,187.0 72.1,187.0 72.9,187.0 73.7,188.0 74.5,188.0 75.3,188.0 76.0,189.0 76.8,189.0 77.7,189.0 78.5,189.0 79.3,190.0 80.1,190.0 80.9,190.0 81.7,191.0 82.5,191.0 83.4,191.0 84.2,191.0 85.0,191.0 85.8,192.0 86.7,192.0 87.5,192.0 88.3,192.0 89.2,192.0 90.0,193.0 90.9,193.0 91.7,193.0 92.6,193.0 93.4,193.0 94.2,193.0 95.1,193.0 95.9,194.0 96.8,194.0 97.7,194.0 98.5,194.0 99.4,194.0 100.0,194.0 101.0,194.0 102.0,194.0 103.0,194.0 104.0,194.0 105.0,194.0 105.0,194.0 106.0,194.0 107.0,194.0 108.0,194.0 109.0,194.0 110.0,194.0 111.0,194.0 111.0,194.0 112.0,194.0 113.0,194.0 114.0,194.0 115.0,194.0 116.0,194.0 117.0,194.0 117.0,194.0 118.0,193.0 119.0,193.0 120.0,193.0 121.0,193.0 122.0,193.0 123.0,193.0 123.0,193.0 124.0,192.0 125.0,192.0 126.0,192.0 127.0,192.0 128.0,192.0 129.0,191.0 129.0,191.0 130.0,191.0 131.0,191.0 132.0,190.0 133.0,190.0 134.0,190.0 134.0,189.0 135.0,189.0 136.0,189.0 137.0,188.0 138.0,188.0 139.0,188.0 139.0,187.0 140.0,187.0 141.0,187.0 142.0,186.0 143.0,186.0 143.0,185.0 144.0,185.0 145.0,185.0 146.0,184.0 147.0,184.0 147.0,183.0 148.0,183.0 149.0,182.0 150.0,182.0 151.0,181.0 151.0,181.0 152.0,180.0 153.0,180.0 154.0,179.0 154.0,179.0 155.0,178.0 156.0,177.0 157.0,177.0 157.0,176.0 158.0,176.0 159.0,175.0 160.0,174.0 160.0,174.0 161.0,173.0 162.0,172.0 162.0,172.0 163.0,171.0 164.0,170.0 164.0,170.0 165.0,169.0 166.0,168.0 167.0,168.0Z" fill="none" stroke="blue" stroke-width="2" /><path d="M167.0,168.0 167.0,167.0 168.0,166.0 169.0,165.0 170.0,164.0 170.0,163.0 171.0,162.0 172.0,161.0 172.0,160.0 173.0,159.0 174.0,158.0 174.0,157.0 175.0,156.0 176.0,156.0 176.0,155.0 177.0,154.0 177.0,153.0 178.0,152.0 178.0,151.0 179.0,150.0 179.0,149.0 180.0,148.0 180.0,148.0 181.0,147.0 181.0,146.0 182.0,145.0 182.0,144.0 183.0,143.0 183.0,142.0 183.0,142.0 184.0,141.0 184.0,140.0 185.0,139.0 185.0,138.0 185.0,137.0 186.0,136.0 186.0,136.0 186.0,135.0 187.0,134.0 187.0,133.0 187.0,132.0 187.0,131.0 188.0,130.0 188.0,129.0 188.0,129.0 188.0,128.0 188.0,127.0 189.0,126.0 189.0,125.0 189.0,124.0 189.0,123.0 189.0,122.0 189.0,121.0 189.0,121.0 190.0,120.0 190.0,119.0 190.0,118.0 190.0,117.0 190.0,116.0 190.0,115.0 190.0,114.0 190.0,113.0 190.0,112.0 190.0,111.0 190.0,110.0 190.0,109.0 190.0,108.0 190.0,107.0 190.0,106.0 190.0,105.0 190.0,104.0 190.0,103.0 190.0,102.0 190.0,101.0 189.0,99.9 189.0,98.9 189.0,97.9 189.0,96.9 189.0,95.9 189.0,95.0 188.0,94.0 188.0,93.0 188.0,92.1 188.0,91.1 187.0,90.2 187.0,89.2 187.0,88.3 187.0,87.3 186.0,86.4 186.0,85.4 186.0,84.5 185.0,83.6 185.0,82.6 184.0,81.7 184.0,80.8 184.0,79.8 183.0,78.9 183.0,77.9 182.0,77.0 182.0,76.1 181.0,75.1 181.0,74.2 180.0,73.2 180.0,72.3 179.0,71.3 178.0,70.4 178.0,69.4 177.0,68.5 177.0,67.5 176.0,68.2 175.0,68.9 175.0,69.6 174.0,70.2 173.0,70.8 173.0,71.4 172.0,71.9 171.0,72.4 171.0,72.8 170.0,73.2 169.0,73.6 168.0,74.0 168.0,74.3 167.0,74.6 166.0,74.9 166.0,75.1 165.0,75.4 164.0,75.6 163.0,75.8 162.0,75.9 162.0,76.1 161.0,76.2 160.0,76.3 159.0,76.4 159.0,76.5 158.0,76.6 157.0,76.7 156.0,76.7 155.0,76.7 155.0,76.8 154.0,76.8 153.0,76.8 152.0,76.9 151.0,76.9 150.0,76.9 150.0,76.9 149.0,76.9 148.0,76.9 147.0,76.9 146.0,77.0 145.0,77.0 145.0,77.0 144.0,77.0 143.0,77.1 142.0,77.1 141.0,77.2 140.0,77.3 139.0,77.4 139.0,77.5 138.0,77.6 137.0,77.7 136.0,77.9 135.0,78.1 134.0,78.3 133.0,78.5 133.0,78.7 132.0,79.0 131.0,79.2 130.0,79.6 129.0,79.9 128.0,80.2 127.0,80.6 127.0,81.1 126.0,81.5 125.0,82.0 124.0,82.5 123.0,83.1 122.0,83.6 122.0,84.2 121.0,84.8 120.0,85.4 119.0,86.1 119.0,86.7 118.0,87.3 117.0,88.0 117.0,88.7 116.0,89.3 115.0,90.0 115.0,90.7 114.0,91.4 114.0,92.1 113.0,92.9 113.0,93.6 112.0,94.3 112.0,95.1 111.0,95.8 111.0,96.6 110.0,97.4 110.0,98.1 110.0,98.9 109.0,99.7 109.0,101.0 109.0,101.0 108.0,102.0 108.0,103.0 108.0,104.0 108.0,105.0 107.0,105.0 107.0,106.0 107.0,107.0 107.0,108.0 107.0,109.0 107.0,110.0 106.0,110.0 106.0,111.0 106.0,112.0 106.0,113.0 106.0,114.0 106.0,115.0 106.0,115.0 106.0,116.0 106.0,117.0 106.0,118.0 107.0,119.0 107.0,120.0 107.0,120.0 107.0,121.0 107.0,122.0 107.0,123.0 108.0,124.0 108.0,125.0 108.0,125.0 108.0,126.0 109.0,127.0 109.0,128.0 109.0,129.0 110.0,129.0 110.0,130.0 110.0,131.0 111.0,132.0 111.0,132.0 112.0,133.0 112.0,134.0 113.0,135.0 113.0,135.0 114.0,136.0 114.0,137.0 115.0,138.0 115.0,138.0 116.0,139.0 116.0,140.0 117.0,140.0 118.0,141.0 118.0,142.0 119.0,142.0 120.0,143.0 120.0,143.0 121.0,144.0 122.0,144.0 123.0,145.0 123.0,145.0 124.0,146.0 125.0,146.0 126.0,147.0 127.0,147.0 128.0,148.0 128.0,148.0 129.0,148.0 130.0,149.0 131.0,149.0 132.0,149.0 133.0,150.0 133.0,150.0 134.0,150.0 135.0,151.0 136.0,151.0 137.0,151.0 138.0,151.0 139.0,152.0 140.0,152.0 141.0,152.0 141.0,153.0 142.0,153.0 143.0,153.0 144.0,153.0 145.0,154.0 146.0,154.0 147.0,154.0 148.0,155.0 148.0,155.0 149.0,155.0 150.0,156.0 151.0,156.0 152.0,156.0 153.0,157.0 154.0,157.0 154.0,157.0 155.0,158.0 156.0,158.0 157.0,159.0 158.0,159.0 158.0,160.0 159.0,160.0 160.0,161.0 161.0,161.0 161.0,162.0 162.0,163.0 163.0,163.0 163.0,164.0 164.0,165.0 165.0,165.0 165.0,166.0 166.0,167.0 167.0,168.0 167.0,168.0Z" fill="none" stroke="cyan" stroke-width="2" /><path d="M13.2,228.0 13.2,227.0 13.1,226.0 13.0,225.0 12.9,224.0 12.8,223.0 12.8,222.0 12.7,221.0 12.6,220.0 12.5,219.0 12.4,218.0 12.4,217.0 12.3,216.0 12.2,215.0 12.1,214.0 12.0,213.0 12.0,212.0 11.9,211.0 11.8,210.0 11.7,209.0 11.6,208.0 11.6,207.0 11.5,206.0 11.4,205.0 11.3,204.0 11.3,203.0 11.2,202.0 11.1,201.0 11.0,200.0 11.0,199.0 10.9,198.0 10.8,197.0 10.7,196.0 10.6,195.0 10.6,194.0 10.5,193.0 10.4,192.0 10.3,191.0 10.3,190.0 10.2,189.0 10.1,188.0 10.0,187.0 9.97,186.0 9.89,185.0 9.82,184.0 9.75,183.0 9.67,182.0 9.6,181.0 9.53,180.0 9.45,179.0 9.38,178.0 9.31,177.0 9.24,176.0 9.16,175.0 9.09,174.0 9.02,173.0 8.95,172.0 8.88,171.0 8.81,170.0 8.74,169.0 8.66,168.0 8.59,167.0 8.52,166.0 8.45,165.0 8.38,164.0 8.32,163.0 8.25,162.0 8.18,161.0 8.11,160.0 8.04,158.0 7.97,157.0 7.9,156.0 7.84,155.0 7.77,154.0 7.7,153.0 7.63,152.0 7.57,151.0 7.5,150.0 7.43,149.0 7.37,148.0 7.3,147.0 7.24,146.0 7.17,145.0 7.11,144.0 7.04,143.0 6.98,142.0 6.92,141.0 6.85,140.0 6.79,139.0 6.72,138.0 6.66,137.0 6.6,136.0 6.54,135.0 6.47,134.0 6.41,133.0 6.35,132.0 6.29,131.0 6.23,130.0 6.17,129.0 6.11,128.0 6.05,127.0 5.99,126.0 5.93,125.0 5.87,124.0 5.81,123.0 5.75,122.0 5.69,121.0 5.64,120.0 5.58,119.0 5.52,118.0 5.47,117.0 5.41,116.0 5.35,115.0 5.3,114.0 5.24,113.0 5.19,112.0 5.13,111.0 5.08,110.0 5.02,109.0 4.97,108.0 4.91,107.0 4.86,106.0 4.81,105.0 4.76,104.0 4.7,103.0 4.65,102.0 4.6,101.0 4.55,100.0 4.5,99.1 4.45,98.1 4.4,97.1 4.35,96.1 4.3,95.1 4.25,94.1 4.2,93.1 4.15,92.1 4.1,91.1 4.06,90.0 4.01,89.0 3.96,88.0 3.91,87.0 3.87,86.0 3.82,85.0 3.78,84.0 3.73,83.0 3.69,82.0 3.64,81.0 3.6,80.0 3.56,79.0 3.51,78.0 3.47,77.0 3.43,75.9 3.39,74.9 3.34,73.9 3.3,72.9 3.26,71.9 3.22,70.9 3.18,69.9 3.14,68.9 3.1,67.9 3.06,66.9 3.03,65.9 2.99,64.9 2.95,63.9 2.91,62.9 2.88,61.9 2.84,60.8 2.8,59.8 2.77,58.8 2.73,57.8 2.7,56.8 2.67,55.8 2.63,54.8 2.6,53.8 2.57,52.8 2.53,51.8 2.5,50.8 2.47,49.8 2.44,48.8 2.41,47.8 2.38,46.8 2.35,45.7 2.32,44.7 2.29,43.7 2.26,42.7 2.23,41.7 2.2,40.7 2.18,39.7 2.15,38.7 2.12,37.7 2.1,36.7 2.07,35.7 2.05,34.7 2.02,33.7 2.0,32.7 1.98,31.7 1.95,30.7 1.93,29.6 1.91,28.6 1.89,27.6 1.87,26.6 1.85,25.6 1.83,24.6 1.81,23.6 1.79,22.6 1.77,21.6 1.75,20.6 1.73,19.6 1.72,18.6 1.7,17.6 1.68,16.6 1.67,15.6 1.65,14.6 1.64,13.6 1.62,12.6 1.61,11.5 1.6,10.5 1.58,9.54 1.57,8.53 1.56,7.53 1.55,6.52 1.54,5.52 1.53,4.51 1.52,3.51 1.51,2.5 1.5,1.5Z" fill="none" stroke="magenta" stroke-width="2" /><path d="M225.0,216.0 224.0,216.0 223.0,216.0 222.0,216.0 221.0,217.0 220.0,217.0 219.0,217.0 218.0,217.0 217.0,217.0 216.0,218.0 215.0,218.0 214.0,218.0 213.0,218.0 212.0,218.0 211.0,218.0 210.0,219.0 209.0,219.0 208.0,219.0 207.0,219.0 206.0,219.0 205.0,220.0 204.0,220.0 203.0,220.0 202.0,220.0 201.0,220.0 200.0,220.0 199.0,221.0 198.0,221.0 197.0,221.0 196.0,221.0 195.0,221.0 194.0,221.0 193.0,222.0 192.0,222.0 191.0,222.0 190.0,222.0 189.0,222.0 188.0,222.0 187.0,223.0 186.0,223.0 185.0,223.0 184.0,223.0 183.0,223.0 182.0,223.0 181.0,223.0 180.0,224.0 179.0,224.0 178.0,224.0 177.0,224.0 176.0,224.0 175.0,224.0 174.0,224.0 173.0,225.0 172.0,225.0 171.0,225.0 170.0,225.0 169.0,225.0 167.0,225.0 166.0,225.0 165.0,225.0 164.0,226.0 163.0,226.0 162.0,226.0 161.0,226.0 160.0,226.0 159.0,226.0 158.0,226.0 157.0,226.0 156.0,227.0 155.0,227.0 154.0,227.0 153.0,227.0 152.0,227.0 151.0,227.0 150.0,227.0 149.0,227.0 148.0,228.0 147.0,228.0 146.0,228.0 145.0,228.0 144.0,228.0 143.0,228.0 142.0,228.0 141.0,228.0 140.0,229.0 139.0,229.0 138.0,229.0 137.0,229.0 136.0,229.0 135.0,229.0 134.0,229.0 133.0,229.0 132.0,229.0 131.0,230.0 130.0,230.0 129.0,230.0 128.0,230.0 127.0,230.0 126.0,230.0 125.0,230.0 124.0,230.0 123.0,230.0 122.0,230.0 121.0,231.0 120.0,231.0 119.0,231.0 118.0,231.0 117.0,231.0 116.0,231.0 115.0,231.0 114.0,231.0 113.0,231.0 112.0,232.0 111.0,232.0 110.0,232.0 109.0,232.0 108.0,232.0 107.0,232.0 106.0,232.0 105.0,232.0 104.0,232.0 103.0,233.0 102.0,233.0 101.0,233.0 99.5,233.0 98.4,233.0 97.4,233.0 96.4,233.0 95.3,233.0 94.3,233.0 93.3,233.0 92.2,233.0 91.2,233.0 90.2,233.0 89.1,233.0 88.1,233.0 87.1,234.0 86.0,234.0 85.0,234.0 83.9,234.0 82.9,234.0 81.9,234.0 80.8,234.0 79.8,234.0 78.7,234.0 77.7,233.0 76.6,233.0 75.6,233.0 74.5,233.0 73.5,233.0 72.4,233.0 71.4,233.0 70.3,233.0 69.2,233.0 68.2,233.0 67.1,233.0 66.1,233.0 65.0,233.0 64.0,233.0 62.9,233.0 61.9,232.0 60.8,232.0 59.8,232.0 58.8,232.0 57.7,232.0 56.7,232.0 55.6,232.0 54.6,232.0 53.6,232.0 52.5,232.0 51.5,231.0 50.5,231.0 49.4,231.0 48.4,231.0 47.4,231.0 46.3,231.0 45.3,231.0 44.3,231.0 43.2,231.0 42.2,231.0 41.1,230.0 40.1,230.0 39.1,230.0 38.0,230.0 37.0,230.0 36.0,230.0 34.9,230.0 33.9,230.0 32.9,230.0 31.8,230.0 30.8,229.0 29.8,229.0 28.7,229.0 27.7,229.0 26.7,229.0 25.6,229.0 24.6,229.0 23.6,229.0 22.5,229.0 21.5,229.0 20.5,228.0 19.4,228.0 18.4,228.0 17.4,228.0 16.3,228.0 15.3,228.0 14.3,228.0 13.2,228.0Z" fill="none" stroke="yellow" stroke-width="2" /><path d="M217.0,2.11 217.0,3.09 217.0,4.07 217.0,5.05 218.0,6.03 218.0,7.01 218.0,8.0 218.0,8.98 218.0,9.96 219.0,10.9 219.0,11.9 219.0,12.9 219.0,13.9 219.0,14.9 219.0,15.9 220.0,16.9 220.0,17.8 220.0,18.8 220.0,19.8 220.0,20.8 220.0,21.8 221.0,22.8 221.0,23.8 221.0,24.7 221.0,25.7 221.0,26.7 221.0,27.7 221.0,28.7 222.0,29.7 222.0,30.7 222.0,31.7 222.0,32.6 222.0,33.6 222.0,34.6 222.0,35.6 223.0,36.6 223.0,37.6 223.0,38.6 223.0,39.6 223.0,40.6 223.0,41.6 223.0,42.5 223.0,43.5 223.0,44.5 224.0,45.5 224.0,46.5 224.0,47.5 224.0,48.5 224.0,49.5 224.0,50.5 224.0,51.5 224.0,52.5 224.0,53.5 225.0,54.5 225.0,55.5 225.0,56.4 225.0,57.4 225.0,58.4 225.0,59.4 225.0,60.4 225.0,61.4 225.0,62.4 225.0,63.4 225.0,64.4 225.0,65.4 226.0,66.4 226.0,67.4 226.0,68.4 226.0,69.4 226.0,70.4 226.0,71.4 226.0,72.4 226.0,73.4 226.0,74.4 226.0,75.4 226.0,76.4 226.0,77.4 226.0,78.4 226.0,79.4 226.0,80.4 226.0,81.4 227.0,82.4 227.0,83.4 227.0,84.4 227.0,85.4 227.0,86.4 227.0,87.4 227.0,88.4 227.0,89.4 227.0,90.4 227.0,91.4 227.0,92.4 227.0,93.4 227.0,94.4 227.0,95.4 227.0,96.4 227.0,97.4 227.0,98.4 227.0,99.4 227.0,100.0 227.0,101.0 227.0,102.0 227.0,103.0 227.0,104.0 227.0,105.0 227.0,106.0 227.0,107.0 227.0,108.0 227.0,109.0 227.0,110.0 227.0,111.0 227.0,112.0 227.0,113.0 227.0,114.0 227.0,115.0 227.0,116.0 227.0,117.0 227.0,118.0 227.0,119.0 227.0,120.0 227.0,121.0 227.0,122.0 227.0,123.0 227.0,124.0 227.0,125.0 227.0,126.0 227.0,127.0 227.0,128.0 227.0,129.0 227.0,130.0 227.0,131.0 227.0,132.0 227.0,133.0 227.0,134.0 227.0,135.0 227.0,136.0 227.0,137.0 227.0,138.0 227.0,139.0 227.0,140.0 227.0,141.0 227.0,142.0 227.0,143.0 227.0,144.0 227.0,145.0 227.0,146.0 227.0,147.0 227.0,148.0 227.0,149.0 227.0,150.0 227.0,152.0 227.0,153.0 227.0,154.0 227.0,155.0 227.0,156.0 227.0,157.0 227.0,158.0 227.0,159.0 227.0,160.0 227.0,161.0 227.0,162.0 227.0,163.0 227.0,164.0 227.0,165.0 227.0,166.0 227.0,167.0 227.0,168.0 227.0,169.0 227.0,170.0 227.0,171.0 227.0,172.0 226.0,173.0 226.0,174.0 226.0,175.0 226.0,176.0 226.0,177.0 226.0,178.0 226.0,179.0 226.0,180.0 226.0,181.0 226.0,182.0 226.0,183.0 226.0,184.0 226.0,185.0 226.0,186.0 226.0,187.0 226.0,188.0 226.0,189.0 226.0,190.0 226.0,191.0 226.0,192.0 226.0,193.0 226.0,194.0 226.0,195.0 226.0,196.0 226.0,197.0 225.0,198.0 225.0,199.0 225.0,200.0 225.0,201.0 225.0,202.0 225.0,203.0 225.0,204.0 225.0,205.0 225.0,206.0 225.0,207.0 225.0,208.0 225.0,209.0 225.0,210.0 225.0,211.0 225.0,212.0 225.0,213.0 225.0,214.0 225.0,215.0 225.0,216.0Z" fill="none" stroke="black" stroke-width="2" /><path d="M1.56,1.88 2.57,1.88 3.57,1.88 4.58,1.88 5.58,1.88 6.59,1.88 7.6,1.88 8.6,1.88 9.61,1.88 10.6,1.89 11.6,1.89 12.6,1.89 13.6,1.89 14.6,1.89 15.6,1.89 16.6,1.89 17.7,1.89 18.7,1.89 19.7,1.9 20.7,1.9 21.7,1.9 22.7,1.9 23.7,1.9 24.7,1.9 25.7,1.9 26.7,1.9 27.7,1.9 28.7,1.91 29.7,1.91 30.7,1.91 31.7,1.91 32.7,1.91 33.7,1.91 34.7,1.91 35.8,1.91 36.8,1.91 37.8,1.91 38.8,1.92 39.8,1.92 40.8,1.92 41.8,1.92 42.8,1.92 43.8,1.92 44.8,1.92 45.8,1.92 46.8,1.92 47.8,1.93 48.8,1.93 49.8,1.93 50.8,1.93 51.8,1.93 52.9,1.93 53.9,1.93 54.9,1.93 55.9,1.93 56.9,1.94 57.9,1.94 58.9,1.94 59.9,1.94 60.9,1.94 61.9,1.94 62.9,1.94 63.9,1.94 64.9,1.94 65.9,1.95 66.9,1.95 67.9,1.95 68.9,1.95 69.9,1.95 71.0,1.95 72.0,1.95 73.0,1.95 74.0,1.95 75.0,1.95 76.0,1.96 77.0,1.96 78.0,1.96 79.0,1.96 80.0,1.96 81.0,1.96 82.0,1.96 83.0,1.96 84.0,1.96 85.0,1.97 86.0,1.97 87.0,1.97 88.1,1.97 89.1,1.97 90.1,1.97 91.1,1.97 92.1,1.97 93.1,1.97 94.1,1.98 95.1,1.98 96.1,1.98 97.1,1.98 98.1,1.98 99.1,1.98 100.0,1.98 101.0,1.98 102.0,1.98 103.0,1.99 104.0,1.99 105.0,1.99 106.0,1.99 107.0,1.99 108.0,1.99 109.0,1.99 110.0,1.99 111.0,1.99 112.0,1.99 113.0,2.0 114.0,2.0 115.0,2.0 116.0,2.0 117.0,2.0 118.0,2.0 119.0,2.0 120.0,2.0 121.0,2.0 122.0,2.01 123.0,2.01 124.0,2.01 125.0,2.01 126.0,2.01 127.0,2.01 128.0,2.01 129.0,2.01 130.0,2.01 131.0,2.02 132.0,2.02 133.0,2.02 134.0,2.02 135.0,2.02 136.0,2.02 137.0,2.02 138.0,2.02 139.0,2.02 140.0,2.02 141.0,2.03 142.0,2.03 143.0,2.03 144.0,2.03 145.0,2.03 146.0,2.03 147.0,2.03 148.0,2.03 149.0,2.03 150.0,2.04 151.0,2.04 152.0,2.04 153.0,2.04 154.0,2.04 155.0,2.04 156.0,2.04 157.0,2.04 158.0,2.04 159.0,2.05 160.0,2.05 161.0,2.05 162.0,2.05 163.0,2.05 164.0,2.05 165.0,2.05 166.0,2.05 167.0,2.05 169.0,2.06 170.0,2.06 171.0,2.06 172.0,2.06 173.0,2.06 174.0,2.06 175.0,2.06 176.0,2.06 177.0,2.06 178.0,2.06 179.0,2.07 180.0,2.07 181.0,2.07 182.0,2.07 183.0,2.07 184.0,2.07 185.0,2.07 186.0,2.07 187.0,2.07 188.0,2.08 189.0,2.08 190.0,2.08 191.0,2.08 192.0,2.08 193.0,2.08 194.0,2.08 195.0,2.08 196.0,2.08 197.0,2.09 198.0,2.09 199.0,2.09 200.0,2.09 201.0,2.09 202.0,2.09 203.0,2.09 204.0,2.09 205.0,2.09 206.0,2.1 207.0,2.1 208.0,2.1 209.0,2.1 210.0,2.1 211.0,2.1 212.0,2.1 213.0,2.1 214.0,2.1 215.0,2.1 216.0,2.11 217.0,2.11Z" fill="none" stroke="red" stroke-width="2" /><g /></svg>